# xmcd CD database file
#
# Track frame offsets:
#	150
#	18832
#	37522
#	65759
#	100860
#	121532
#	135366
#	149014
#	157574
#	185106
#	200505
#	218287
#	248781
#	262168
#
# Disc length: 3848 seconds
#
# Revision: 0
# Processed by: cddbd v1.5.2PL0 Copyright (c) Steve Scherf et al.
# Submitted via: CDex 1.70beta2
#
DISCID=b60f060e
DTITLE=Bill Evans and Tony Scott  -  The Complete Recordings [Edizione: Francia] Disk 1 
DYEAR=1900
DGENRE=Jazz
TTITLE0=Misery
TTITLE1=Requiem for "Hot lips" page
TTITLE2=Blues for an African friend
TTITLE3=Five
TTITLE4=There will never be another you
TTITLE5=If I'm lucky (I'll be the one)
TTITLE6=A shoulder to cry on
TTITLE7=Deep pirple
TTITLE8=Aeolian drinkin'song
TTITLE9='Round midnight
TTITLE10=Vanilla frosting on a beef pie
TTITLE11=For Stefan wolpe
TTITLE12=Israel
TTITLE13=Like someone in love
EXTD=
EXTT0=
EXTT1=
EXTT2=
EXTT3=
EXTT4=
EXTT5=
EXTT6=
EXTT7=
EXTT8=
EXTT9=
EXTT10=
EXTT11=
EXTT12=
EXTT13=
PLAYORDER=
